<svg width="22" height="22" viewBox="0 0 22 22" fill="none" xmlns="http://www.w3.org/2000/svg">
<path d="M4.8949 2.33334H6.63708C7.55221 2.33341 8.16844 2.57391 8.55701 2.96323C8.94536 3.35245 9.18418 3.96849 9.18005 4.88315V6.62729C9.18005 7.54259 8.93915 8.1592 8.54919 8.54916C8.15923 8.93912 7.54262 9.18002 6.62732 9.18002H4.88611C3.97081 9.18002 3.35419 8.93912 2.96423 8.54916C2.57427 8.1592 2.33337 7.54259 2.33337 6.62729V4.88608C2.33337 3.97092 2.57361 3.35407 2.96423 2.9642C3.35512 2.57419 3.97451 2.33337 4.8949 2.33334Z" stroke="black"/>
<path d="M15.3727 2.33334H17.1139C18.0292 2.33334 18.6458 2.57424 19.0358 2.9642C19.4257 3.35416 19.6666 3.97078 19.6666 4.88608V6.62729C19.6666 7.54259 19.4257 8.1592 19.0358 8.54916C18.6458 8.93912 18.0292 9.18002 17.1139 9.18002H15.3727C14.4574 9.18002 13.8408 8.93912 13.4508 8.54916C13.0608 8.1592 12.8199 7.54259 12.8199 6.62729V4.88608C12.8199 3.97078 13.0608 3.35416 13.4508 2.9642C13.8408 2.57424 14.4574 2.33334 15.3727 2.33334Z" stroke="black"/>
<path d="M15.3727 12.8108H17.1139C18.0292 12.8108 18.6458 13.0517 19.0358 13.4417C19.4257 13.8316 19.6666 14.4483 19.6666 15.3636V17.1048C19.6666 18.0201 19.4257 18.6367 19.0358 19.0266C18.6458 19.4166 18.0292 19.6575 17.1139 19.6575H15.3727C14.4574 19.6575 13.8408 19.4166 13.4508 19.0266C13.0608 18.6367 12.8199 18.0201 12.8199 17.1048V15.3636C12.8199 14.4483 13.0608 13.8316 13.4508 13.4417C13.8408 13.0517 14.4574 12.8108 15.3727 12.8108Z" stroke="black"/>
<path d="M4.8949 12.8108H6.63708C7.55235 12.8109 8.16855 13.0515 8.55701 13.4417C8.94543 13.8319 9.18425 14.4504 9.18005 15.3704V17.1145C9.17999 18.0296 8.9391 18.6465 8.54919 19.0364C8.15922 19.4262 7.54239 19.6663 6.62732 19.6663H4.88611C3.97081 19.6663 3.35409 19.4262 2.96423 19.0354C2.5742 18.6445 2.33337 18.0252 2.33337 17.1048V15.3636C2.33337 14.4484 2.57361 13.8315 2.96423 13.4417C3.35512 13.0517 3.97451 12.8108 4.8949 12.8108Z" stroke="black"/>
</svg>
