<svg width="22" height="22" viewBox="0 0 22 22" fill="none" xmlns="http://www.w3.org/2000/svg">
<path d="M3.65649 13.4388L2.26316 12.0454C1.69483 11.4771 1.69483 10.5421 2.26316 9.97373L3.65649 8.58037C3.89482 8.34204 4.08732 7.87454 4.08732 7.54454V5.57368C4.08732 4.76701 4.74733 4.10704 5.55399 4.10704H7.52482C7.85482 4.10704 8.32233 3.91456 8.56066 3.67623L9.95398 2.28288C10.5223 1.71455 11.4573 1.71455 12.0257 2.28288L13.419 3.67623C13.6573 3.91456 14.1248 4.10704 14.4548 4.10704H16.4257C17.2323 4.10704 17.8923 4.76701 17.8923 5.57368V7.54454C17.8923 7.87454 18.0848 8.34204 18.3232 8.58037L19.7165 9.97373C20.2848 10.5421 20.2848 11.4771 19.7165 12.0454L18.3232 13.4388C18.0848 13.6771 17.8923 14.1446 17.8923 14.4746V16.4453C17.8923 17.252 17.2323 17.9121 16.4257 17.9121H14.4548C14.1248 17.9121 13.6573 18.1046 13.419 18.3429L12.0257 19.7362C11.4573 20.3046 10.5223 20.3046 9.95398 19.7362L8.56066 18.3429C8.32233 18.1046 7.85482 17.9121 7.52482 17.9121H5.55399C4.74733 17.9121 4.08732 17.252 4.08732 16.4453V14.4746C4.08732 14.1354 3.89482 13.6679 3.65649 13.4388Z" stroke="#5F5F5F" stroke-width="1.375" stroke-linecap="round" stroke-linejoin="round"/>
<path d="M8.25 13.75L13.75 8.25" stroke="#5F5F5F" stroke-width="1.375" stroke-linecap="round" stroke-linejoin="round"/>
<path d="M13.2867 13.2916H13.2949" stroke="#5F5F5F" stroke-width="1.375" stroke-linecap="round" stroke-linejoin="round"/>
<path d="M8.7033 8.70833H8.71153" stroke="#5F5F5F" stroke-width="1.375" stroke-linecap="round" stroke-linejoin="round"/>
</svg>
