<svg width="22" height="22" viewBox="0 0 22 22" fill="none" xmlns="http://www.w3.org/2000/svg">
<path d="M15.5834 16.8941H11.9167L7.83753 19.6074C7.23253 20.0108 6.41671 19.58 6.41671 18.8466V16.8941C3.66671 16.8941 1.83337 15.0608 1.83337 12.3108V6.81075C1.83337 4.06075 3.66671 2.22742 6.41671 2.22742H15.5834C18.3334 2.22742 20.1667 4.06075 20.1667 6.81075V12.3108C20.1667 15.0608 18.3334 16.8941 15.5834 16.8941Z" stroke="#5F5F5F" stroke-width="1.375" stroke-miterlimit="10" stroke-linecap="round" stroke-linejoin="round"/>
<path d="M10.9998 10.4132V10.2207C10.9998 9.59741 11.3848 9.26739 11.7698 9.00156C12.1456 8.74489 12.5214 8.41491 12.5214 7.80991C12.5214 6.96657 11.8431 6.28821 10.9998 6.28821C10.1565 6.28821 9.47815 6.96657 9.47815 7.80991" stroke="#5F5F5F" stroke-width="1.375" stroke-linecap="round" stroke-linejoin="round"/>
<path d="M10.9958 12.6041H11.0041" stroke="#5F5F5F" stroke-width="1.375" stroke-linecap="round" stroke-linejoin="round"/>
</svg>
