<svg width="31" height="30" viewBox="0 0 31 30" fill="none" xmlns="http://www.w3.org/2000/svg">
<path d="M25.4049 12.9787C25.4995 12.7503 25.5243 12.4989 25.476 12.2563C25.4277 12.0138 25.3086 11.791 25.1337 11.6162L18.8836 5.36624L17.1161 7.13374L21.2324 11.25H5.4999V13.75H24.2499C24.4971 13.7501 24.7388 13.6768 24.9444 13.5395C25.15 13.4023 25.3102 13.2071 25.4049 12.9787ZM5.5949 17.0212C5.50027 17.2497 5.47553 17.5011 5.52381 17.7436C5.5721 17.9862 5.69124 18.2089 5.86615 18.3837L12.1162 24.6337L13.8837 22.8662L9.7674 18.75H25.4999V16.25H6.7499C6.50266 16.2498 6.26091 16.3229 6.05529 16.4602C5.84967 16.5975 5.68944 16.7928 5.5949 17.0212Z" fill="black"/>
</svg>
