<svg width="22" height="22" viewBox="0 0 22 22" fill="none" xmlns="http://www.w3.org/2000/svg">
<path d="M11 13.75C12.5188 13.75 13.75 12.5188 13.75 11C13.75 9.48122 12.5188 8.25 11 8.25C9.48122 8.25 8.25 9.48122 8.25 11C8.25 12.5188 9.48122 13.75 11 13.75Z" stroke="#5F5F5F" stroke-width="1.375" stroke-miterlimit="10" stroke-linecap="round" stroke-linejoin="round"/>
<path d="M1.83337 11.8066V10.1933C1.83337 9.23992 2.61254 8.45159 3.57504 8.45159C5.23421 8.45159 5.91254 7.27825 5.07837 5.83909C4.60171 5.01409 4.88587 3.94159 5.72004 3.46492L7.30587 2.55742C8.03004 2.12659 8.96504 2.38325 9.39587 3.10742L9.49671 3.28159C10.3217 4.72075 11.6784 4.72075 12.5125 3.28159L12.6134 3.10742C13.0442 2.38325 13.9792 2.12659 14.7034 2.55742L16.2892 3.46492C17.1234 3.94159 17.4075 5.01409 16.9309 5.83909C16.0967 7.27825 16.775 8.45159 18.4342 8.45159C19.3875 8.45159 20.1759 9.23075 20.1759 10.1933V11.8066C20.1759 12.7599 19.3967 13.5483 18.4342 13.5483C16.775 13.5483 16.0967 14.7216 16.9309 16.1608C17.4075 16.9949 17.1234 18.0583 16.2892 18.5349L14.7034 19.4424C13.9792 19.8733 13.0442 19.6166 12.6134 18.8924L12.5125 18.7183C11.6875 17.2791 10.3309 17.2791 9.49671 18.7183L9.39587 18.8924C8.96504 19.6166 8.03004 19.8733 7.30587 19.4424L5.72004 18.5349C4.88587 18.0583 4.60171 16.9858 5.07837 16.1608C5.91254 14.7216 5.23421 13.5483 3.57504 13.5483C2.61254 13.5483 1.83337 12.7599 1.83337 11.8066Z" stroke="#5F5F5F" stroke-width="1.375" stroke-miterlimit="10" stroke-linecap="round" stroke-linejoin="round"/>
</svg>
