<svg width="22" height="22" viewBox="0 0 22 22" fill="none" xmlns="http://www.w3.org/2000/svg">
<path d="M16.5368 12.4208C16.1518 12.7966 15.9317 13.3374 15.9867 13.9149C16.0692 14.9049 16.9767 15.6291 17.9667 15.6291H19.7084V16.7199C19.7084 18.6174 18.1592 20.1666 16.2617 20.1666H5.73842C3.84092 20.1666 2.29175 18.6174 2.29175 16.7199V10.5508C2.29175 8.65327 3.84092 7.1041 5.73842 7.1041H16.2617C18.1592 7.1041 19.7084 8.65327 19.7084 10.5508V11.8708H17.8567C17.3434 11.8708 16.8759 12.0724 16.5368 12.4208Z" stroke="#5F5F5F" stroke-width="1.375" stroke-linecap="round" stroke-linejoin="round"/>
<path d="M2.29163 11.3759V7.18676C2.29163 6.09593 2.96079 5.12422 3.97829 4.73922L11.2566 1.98922C12.3933 1.55839 13.6125 2.40175 13.6125 3.62092V7.10424" stroke="#5F5F5F" stroke-width="1.375" stroke-linecap="round" stroke-linejoin="round"/>
<path d="M20.6789 12.806V14.6944C20.6789 15.1985 20.2755 15.611 19.7622 15.6293H17.9655C16.9755 15.6293 16.068 14.9052 15.9855 13.9152C15.9305 13.3377 16.1505 12.7968 16.5355 12.421C16.8747 12.0726 17.3422 11.871 17.8555 11.871H19.7622C20.2755 11.8893 20.6789 12.3018 20.6789 12.806Z" stroke="#5F5F5F" stroke-width="1.375" stroke-linecap="round" stroke-linejoin="round"/>
<path d="M6.41663 11H12.8333" stroke="#5F5F5F" stroke-width="1.375" stroke-linecap="round" stroke-linejoin="round"/>
</svg>
